<svg xmlns="http://www.w3.org/2000/svg" viewBox="-6.0 48.9 139.7 146.0">
  <g stroke="#2e1065" stroke-width="3" stroke-linejoin="round" stroke-linecap="round" transform="translate(-174.02 -616.9)">
    <g id="g3042" transform="translate(0 -1.8363)">
      <path id="path3894" stroke-width="2" fill="#fff" d="m267.92 750.68c-4.297 6.4618-13.318 26.901-24.859 24.258l0.52243 31.287-50.021 0.45689 0.1601-30.762c-11.862-2.8788-20.524-55.675-11.845-66.95 6.3915-6.4967 46.668-2.5934 49.378-20.227 2.3557-13.326 0.37321 11.848 1.8237 2.9673 1.134-7.1802 15.529-12.884 16.37 2.1156 1.7685 7.2188-4.3743 10.653-2.9944 30.993 0.38261 5.64 10.737 3.0735 11.596 3.3518l25.18-17.896c17.046-11.041 24.199 7.6665 9.8698 18.676z"></path>
      <path id="path2999" stroke-width="1.9789" fill="#fff" d="m232.4 685.07c0.68236-7.9048 20.749-9.2117 20.968 4.7529-3.5542 14.543-5.3227 29.087-8.8769 43.63-2.3371 7.1835-14.644 7.9883-15.465-0.84841 1.3715-15.914 1.6338-31.658 3.3738-47.534z"></path>
      <path id="path3896" fill="none" d="m221.33 773.27c-2.7874-19.896-0.87231-25.376 12.455-33.966"></path>
      <path id="path3898" stroke-width="2" fill="#fff" d="m232.37 684.16c1.8802-8.4355-15.811-16.425-21.983 0.29691l-1.0152 49.607c0.66072 7.3247 18.603 9.159 18.986-2.0831 2.7542-16.239 4.0363-33.007 4.0124-47.82z"></path>
      <path id="path3902" stroke-width="2" fill="#fff" d="m194.13 701.23c-2.6002-12.045-23.635-13.058-18.216 7.1155 3.2863 10.551 6.4857 21.698 12.115 30.151 3.315 5.4808 13.658 2.2304 13.71-2.8971l-4.2599-13.567z"></path>
      <path id="path3904" stroke-width="2" fill="#fff" d="m209.98 688.04c-0.59249-7.9133-19.525-9.3442-19.934 4.6162l5.2865 22.434 5.0276 21.336c2.2922 7.2144 13.027 8.1612 13.983-0.66368l-1.9054-22.789z"></path>
    </g>
  </g>
</svg>
