<svg xmlns="http://www.w3.org/2000/svg" viewBox="143.9 2.3 139.7 192.6">
  <g stroke="#2e1065" stroke-width="3" stroke-linejoin="round" stroke-linecap="round" transform="translate(-174.02 -616.9)">
    <g id="g3050" transform="translate(7.7998 -.83982)">
      <path id="path3003" stroke-width="2" fill="#fff" d="m409.97 749.68c-4.2969 6.4618-13.318 26.901-24.858 24.258l0.5224 31.287-50.021 0.45689 0.1601-30.762c-11.862-2.8788-20.524-55.675-11.845-66.95 4.2752-4.3455 31.522 5.266 29.948-8.6352-2.6541-20.896 3.8003 4.9104 3.733-4.4945-2.6467-21.235 10.031-21.2 10.5-6.9704 3.8229 14.667-2.1474 9.4251 4.266 9.4805 5.6686 5.1166 9.5846-50.424 12.779-58.054 3.3084-17.293 18.623-15.964 17.173 2.1664 1.2703 7.2188-8.7748 59.159-7.395 79.498 0.3826 5.64 4.3084 5.9306 5.1675 6.2089l25.18-17.896c17.046-11.041 24.199 7.6665 9.8698 18.676z"></path>
      <path id="path3005" fill="none" d="m363.38 772.28c-2.7874-19.896 0.70611-33.365 14.033-41.955"></path>
      <path id="path3007" stroke-width="2" fill="#fff" d="m336.18 700.24c-2.6002-12.045-23.635-13.058-18.216 7.1155 3.2863 10.551 4.9705 23.213 10.599 31.666 3.315 5.4808 15.173 0.71518 15.226-4.4123l-4.2599-13.567z"></path>
      <path id="path3009" stroke-width="2" fill="#fff" d="m375.73 684.16c1.8802-8.4355-15.811-16.425-21.983 0.29691l-1.0152 49.607c0.66072 7.3247 18.603 9.159 18.986-2.0831 2.7542-16.239 4.0363-33.007 4.0124-47.82z"></path>
      <path id="path3011" stroke-width="2" fill="#fff" d="m352.53 683.22c-1.0204-7.5825-20.792-9.1681-20.432 4.9812l5.2865 24.209 4.0175 21.003c-0.73205 11.908 17.089 12.668 15.499-1.7263l-1.4003-20.045z"></path>
    </g>
  </g>
</svg>
