<svg xmlns="http://www.w3.org/2000/svg" viewBox="595.4 -6.0 152.6 200.9">
  <g stroke="#2e1065" stroke-width="3" stroke-linejoin="round" stroke-linecap="round" transform="translate(-174.02 -616.9)">
    <g id="g3068" transform="translate(.000030444 .00399)">
      <path id="path3035" stroke-width="2" transform="translate(200.76 612.69)" fill="#fff" d="m629.28 5.2188c-4.9112 0.14702-7.7498 5.2189-6.3438 16.5 0.0673 9.4048 1.7209 43.198 4.375 64.094 0.0477 5.3457-4.9012 7.7349-7.9375 2.7812l-3.5-37.812-2.9375-23.719c0.73206-11.908-17.09-12.675-15.5 1.7188l1.4062 22.062 6.3312 37.226c1.987 8.6801-1.6208 5.6945-2.5479 1.0443-1.8673-9.9385-13.534-38.294-16.513-42.767-3.315-5.4808-10.408-0.72123-10.461 4.4062 2.4753 14.258 17.409 42.431 17.128 50.121-3.7745 17.922 4.11 58.032 14.406 60.531l-0.15625 30.75 50.031-0.4375-0.53125-31.312c11.54 2.6436 20.578-17.788 24.875-24.25l25.16-21.71c14.329-11.009 7.1705-29.729-9.875-18.688l-25.156 17.906c-0.8591-0.27831-6.8049-0.5788-7.1875-6.2188-1.3798-20.34 10.677-68.281 9.4062-75.5 1.4495-18.131-11.879-19.449-15.188-2.1562-3.1948 7.6292-7.6751 59.523-13.344 54.406-6.4134-0.0554-3.1458-54.052-6.9688-68.719-0.22017-6.6701-4.6354-10.38-8.9688-10.25z"></path>
      <path id="path3037" fill="none" d="m835.57 771.44c-2.7874-19.896 0.70612-33.365 14.033-41.955"></path>
    </g>
  </g>
</svg>
