<svg xmlns="http://www.w3.org/2000/svg" viewBox="443.5 -6.0 141.7 200.9">
  <g stroke="#2e1065" stroke-width="3" stroke-linejoin="round" stroke-linecap="round" transform="translate(-174.02 -616.9)">
    <g id="g3063" transform="translate(-1.9773 .00399)">
      <path id="path3026" stroke-width="2" fill="#fff" d="m669.34 617.9c-4.9112 0.14702-9.7498 5.2189-8.3438 16.5 0.0673 9.4048 1.7209 37.198 4.375 58.094 0.73445 6.193-3.594 8.2435-5.9375 2.7679l-3.5089-31.804-2.9286-21.714c0.73206-11.908-17.09-12.675-15.5 1.7188l1.4062 20.062 6.5312 42.531c-4.6119-0.26532-8.6061-0.38607-10.031 1.0625-8.6791 11.275-0.0179 64.09 11.844 66.969l-0.15625 30.75 50.031-0.4375-0.53125-31.312c11.54 2.6436 20.578-17.788 24.875-24.25l25.156-21.719c14.329-11.009 7.1705-29.729-9.875-18.688l-25.156 17.906c-0.8591-0.27831-4.8049-0.5788-5.1875-6.2188-1.3798-20.34 8.6766-72.281 7.4062-79.5 1.4495-18.131-13.879-19.449-17.188-2.1562-3.1948 7.6292-5.6751 63.523-11.344 58.406-6.4134-0.0554-3.1458-54.052-6.9688-68.719-0.22017-6.6701-4.6354-10.38-8.9688-10.25z"></path>
      <path id="path3028" fill="none" d="m674.85 771.44c-2.7874-19.896 0.70612-33.365 14.033-41.955"></path>
      <path id="path3030" stroke-width="2" fill="#fff" d="m645.66 701.4c-2.6002-12.045-23.635-13.058-18.216 7.1155 3.2863 10.551 4.9705 23.213 10.599 31.666 3.315 5.4808 15.173 0.71518 15.226-4.4123l-4.2599-13.567z"></path>
    </g>
  </g>
</svg>
