<svg xmlns="http://www.w3.org/2000/svg" viewBox="293.7 -6.0 139.7 200.9">
  <g stroke="#2e1065" stroke-width="3" stroke-linejoin="round" stroke-linecap="round" transform="translate(-174.02 -616.9)">
    <g id="g3057" transform="translate(9.5483)">
      <path id="path3938-8" stroke-width="2" fill="#fff" d="m558.07 748.84c-4.2969 6.4618-13.318 26.901-24.858 24.258l0.5224 31.287-50.021 0.45689 0.1601-30.762c-11.862-2.8788-20.524-55.675-11.845-66.95 4.2752-4.3455 31.522 5.266 29.948-8.6352-2.6541-20.896-4.2809-54.689-4.3482-64.093-2.6467-21.235 16.816-20.486 17.286-6.2562 3.8229 14.667 0.57671 68.667 6.9901 68.722 5.6686 5.1166 8.156-50.782 11.351-58.411 3.3084-17.293 18.623-15.964 17.173 2.1664 1.2703 7.2188-8.7748 59.159-7.395 79.498 0.38259 5.64 4.3084 5.9306 5.1675 6.2089l25.18-17.896c17.046-11.041 24.199 7.6665 9.8698 18.676z"></path>
      <path id="path3940-6" fill="none" d="m511.48 771.44c-2.7874-19.896 0.70612-33.365 14.033-41.955"></path>
      <path id="path3944-1" stroke-width="2" fill="#fff" d="m484.28 699.4c-2.6002-12.045-23.635-13.058-18.216 7.1155 3.2863 10.551 4.9705 23.213 10.599 31.666 3.315 5.4808 15.173 0.71518 15.226-4.4123l-4.2599-13.567z"></path>
      <path id="path3946-5" stroke-width="2" fill="#fff" d="m500.63 682.38c-1.0204-7.5825-20.792-9.1681-20.432 4.9812l5.2865 24.209 4.0175 21.003c-0.73206 11.908 17.089 12.668 15.499-1.7263l-1.4003-20.045z"></path>
    </g>
  </g>
</svg>
